<svg version="1.1" xmlns="http://www.w3.org/2000/svg" viewBox="0 0 2048 2048">
<path transform="translate(0,0)" fill="rgb(247,245,241)" d="M 0 0 L 2048 0 L 2048 2048 L 1941.79 2048 L 108.593 2048 L 0 2048 L 0 0 z"/>
<path transform="translate(0,0)" fill="rgb(47,58,90)" d="M 714.708 1279.16 C 599.526 1275.76 509.832 1164.77 517.76 1052.87 C 534.747 813.095 598.505 529.761 778.23 358.143 C 929.794 213.416 1161.29 230.545 1298.2 383.408 C 1429.15 528.542 1488.86 730.554 1519.12 920.034 C 1524.2 952.069 1526.13 981.888 1530.06 1013.35 C 1540.34 1095.7 1526.08 1167.6 1461.56 1226.63 C 1430.03 1255.81 1389.88 1273.97 1347.15 1278.39 C 1328.75 1280.2 1308.5 1279.69 1289.85 1279.77 C 1261.58 1280 1233.31 1280 1205.04 1279.79 L 1204.95 1278.68 C 1205.54 1258.84 1204.99 1235.73 1205.03 1215.69 C 1091.11 1313.46 960.839 1306.22 846.573 1213.43 C 846.133 1235.3 847.137 1257.19 846.837 1279 L 758.156 1279.18 C 746.828 1279.18 725.209 1278.42 714.708 1279.16 z"/>
<path transform="translate(0,0)" fill="rgb(241,217,196)" d="M 1025.04 447.626 C 1066.46 540.388 1129.92 607.119 1225.81 645.328 C 1248.66 654.434 1284.32 663.605 1309 664.184 L 1309.04 729.833 C 1318.51 731.213 1327.82 732.484 1336.6 736.088 C 1423.06 771.567 1425.26 900.25 1354.24 952.695 C 1340.56 962.794 1325.79 968.919 1310.05 973.938 C 1309.71 1023.93 1305.52 1058.08 1286.33 1105.19 C 1266.51 1148.34 1242.46 1185.06 1205.03 1215.69 C 1091.11 1313.46 960.839 1306.22 846.573 1213.43 C 811.211 1184.41 784.725 1145.97 765.675 1104.73 C 746.072 1055.74 742.278 1025.59 742.462 973.304 C 711.628 966.631 686.13 949.469 668.998 922.781 C 649.013 891.838 642.122 854.229 649.837 818.21 C 660.497 769.51 692.471 735.773 742.787 730.184 L 742.858 664.112 C 825.947 659.373 907.375 610.047 961.935 548.737 C 981.291 527.258 997.806 503.381 1011.08 477.692 C 1016.08 467.789 1020.2 457.358 1025.04 447.626 z"/>
<path transform="translate(0,0)" fill="rgb(184,102,58)" d="M 742.558 826.918 C 942.062 842.226 973.088 1097.5 765.675 1104.73 C 746.072 1055.74 742.278 1025.59 742.462 973.304 C 743.83 926.427 742.816 874.017 742.558 826.918 z"/>
<path transform="translate(0,0)" fill="rgb(184,102,58)" d="M 1286.33 1105.19 C 1163.9 1105 1100.87 983.742 1182.82 888.905 C 1216.56 849.86 1258.91 831.105 1309.91 826.819 C 1308.84 875.853 1308.89 924.906 1310.05 973.938 C 1309.71 1023.93 1305.52 1058.08 1286.33 1105.19 z"/>
<path transform="translate(0,0)" fill="rgb(184,102,58)" d="M 968.921 957.044 L 988.139 851.04 C 991.11 834.351 995.228 806.378 999.656 791.037 C 1002.28 781.66 1006.12 772.667 1011.08 764.29 C 1025.31 740.531 1043.53 728.354 1069.82 721.613 L 1069.9 791.191 C 1069.93 804.522 1069.51 821.727 1070.77 834.654 C 1072.21 849.513 1075.96 867.193 1078.79 882.052 C 1083.56 906.538 1088 931.086 1092.1 955.691 C 1091.82 976.301 1086.17 995.883 1070.96 1010.57 C 1059.69 1021.36 1044.59 1027.22 1028.99 1026.83 C 990.902 1025.91 969.343 992.29 968.921 957.044 z"/>
<path transform="translate(0,0)" fill="rgb(122,74,46)" d="M 968.921 957.044 C 969.574 956.246 970.166 955.819 970.951 955.136 C 1009.37 984.147 1052.76 979.564 1092.1 955.691 C 1091.82 976.301 1086.17 995.883 1070.96 1010.57 C 1059.69 1021.36 1044.59 1027.22 1028.99 1026.83 C 990.902 1025.91 969.343 992.29 968.921 957.044 z"/>
<path transform="translate(0,0)" fill="rgb(247,245,241)" d="M 885.736 726.518 C 920.992 726.022 950.046 754.06 950.805 789.311 C 951.563 824.563 923.742 853.825 888.497 854.847 C 852.879 855.879 823.239 827.698 822.472 792.073 C 821.706 756.449 850.106 727.019 885.736 726.518 z"/>
<path transform="translate(0,0)" fill="rgb(34,32,32)" d="M 882.958 765.409 C 897.7 763.816 910.985 774.364 912.777 789.082 C 914.569 803.801 904.202 817.228 889.509 819.219 C 879.826 820.53 870.186 816.529 864.279 808.746 C 858.371 800.963 857.11 790.602 860.978 781.629 C 864.845 772.656 873.243 766.458 882.958 765.409 z"/>
<path transform="translate(0,0)" fill="rgb(247,245,241)" d="M 1161.14 727.591 C 1196.02 721.614 1229.12 745.08 1235.04 779.968 C 1240.95 814.856 1217.42 847.918 1182.52 853.764 C 1147.71 859.595 1114.76 836.143 1108.86 801.347 C 1102.97 766.551 1126.36 733.552 1161.14 727.591 z"/>
<path transform="translate(0,0)" fill="rgb(34,32,32)" d="M 1165.81 765.442 C 1180.75 762.599 1195.14 772.492 1197.84 787.461 C 1200.54 802.43 1190.51 816.725 1175.51 819.277 C 1160.72 821.795 1146.66 811.929 1144 797.164 C 1141.34 782.399 1151.07 768.246 1165.81 765.442 z"/>
<path transform="translate(0,0)" fill="rgb(184,102,58)" d="M 1014.33 1057.34 C 1086.87 1047.09 1145.15 1108.86 1041.08 1125.89 C 953.525 1131.94 914.43 1070.34 1014.33 1057.34 z"/>
<path transform="translate(0,0)" fill="rgb(136,162,42)" d="M 797.819 1435.04 C 813.891 1450.54 830.195 1468.04 845.727 1484.19 C 863.399 1504.5 884.365 1524.93 903.269 1544.3 L 978.916 1622.57 C 993.467 1637.53 1010.6 1653.85 1024.01 1669.52 C 1066.42 1625.16 1110.68 1580.67 1153.81 1536.9 L 1189.73 1500.66 C 1192.84 1497.54 1204.08 1486.77 1206.25 1483.96 C 1222.2 1467.99 1237.8 1451.67 1253.03 1435.02 C 1272.66 1473.2 1295.23 1516.41 1313.5 1555.06 L 1308.13 1563.65 L 1321.68 1568.25 L 1589.52 1673.51 L 1681.84 1709.09 C 1717.47 1722.99 1746.54 1733.15 1778.44 1754.96 C 1826.97 1787.68 1865.41 1833.28 1889.46 1886.64 C 1897.26 1904.33 1902.68 1923.3 1908.31 1941.8 L 1929.56 2011.19 C 1933.03 2022.32 1937.36 2037.42 1941.79 2048 L 108.593 2048 C 117.616 2017.92 126.792 1987.88 136.122 1957.9 C 143.085 1935.3 149.911 1911.15 159.071 1889.52 C 181.141 1837.84 216.942 1793.18 262.592 1760.4 C 301.739 1732.47 334.72 1722.04 378.846 1705.13 L 452.353 1676.25 C 542.251 1641.18 636.213 1605.24 725.366 1568.83 C 730.288 1566.85 735.195 1564.82 740.087 1562.76 C 738.981 1561.09 737.577 1558.94 737.126 1556.97 C 735.63 1550.42 790.669 1448.82 797.819 1435.04 z"/>
<path transform="translate(0,0)" fill="rgb(136,162,42)" d="M 797.819 1435.04 C 813.891 1450.54 830.195 1468.04 845.727 1484.19 C 863.399 1504.5 884.365 1524.93 903.269 1544.3 L 978.916 1622.57 C 993.467 1637.53 1010.6 1653.85 1024.01 1669.52 C 1066.42 1625.16 1110.68 1580.67 1153.81 1536.9 L 1189.73 1500.66 C 1192.84 1497.54 1204.08 1486.77 1206.25 1483.96 C 1222.2 1467.99 1237.8 1451.67 1253.03 1435.02 C 1272.66 1473.2 1295.23 1516.41 1313.5 1555.06 L 1308.13 1563.65 C 1303.41 1569.71 1296.81 1581.54 1292.71 1588.4 C 1283.91 1603.21 1275.02 1617.96 1266.04 1632.65 L 1155.27 1812.84 C 1125.3 1781.03 1095.84 1748.1 1066.06 1716.08 C 1054.01 1703.12 1040.75 1687.31 1028.68 1674.99 L 1025.34 1670.92 L 1023.63 1670.76 L 1020.26 1674.19 C 976.885 1719.11 935.931 1766.32 892.787 1811.03 L 778.106 1625.15 C 772.827 1616.54 743.577 1566.33 740.087 1562.76 C 738.981 1561.09 737.577 1558.94 737.126 1556.97 C 735.63 1550.42 790.669 1448.82 797.819 1435.04 z"/>
<path transform="translate(0,0)" fill="rgb(122,74,46)" d="M 740.087 1562.76 C 743.577 1566.33 772.827 1616.54 778.106 1625.15 L 892.787 1811.03 C 935.931 1766.32 976.885 1719.11 1020.26 1674.19 L 1023.63 1670.76 L 1025.34 1670.92 L 1028.68 1674.99 C 1040.75 1687.31 1054.01 1703.12 1066.06 1716.08 C 1095.84 1748.1 1125.3 1781.03 1155.27 1812.84 L 1266.04 1632.65 C 1275.02 1617.96 1283.91 1603.21 1292.71 1588.4 C 1296.81 1581.54 1303.41 1569.71 1308.13 1563.65 L 1321.68 1568.25 C 1317.17 1581.37 1304.92 1603.89 1298.17 1617.15 C 1283.3 1646.77 1268.19 1676.26 1252.83 1705.63 L 1179.1 1848.46 C 1168.5 1868.98 1156.57 1894.99 1145.39 1914.49 C 1119.67 1865.59 1095.52 1814.95 1070.73 1765.47 L 1039.78 1703.82 C 1035.67 1695.46 1028.95 1682.68 1025.66 1674.28 L 1021.73 1675.09 C 1020.24 1682.3 1004.04 1713.71 999.45 1722.24 C 965.626 1785.16 936.482 1852.6 902.303 1915.07 C 893.672 1899.91 884.665 1880.61 876.506 1864.84 C 856.351 1826.77 836.721 1788.42 817.621 1749.81 C 787.297 1689.81 754.634 1629.03 725.366 1568.83 C 730.288 1566.85 735.195 1564.82 740.087 1562.76 z"/>
<path transform="translate(0,0)" fill="rgb(241,217,196)" d="M 846.573 1213.43 C 960.839 1306.22 1091.11 1313.46 1205.03 1215.69 C 1204.99 1235.73 1205.54 1258.84 1204.95 1278.68 L 1205.04 1279.79 C 1204.72 1299.79 1203.99 1478.64 1206.25 1483.96 C 1204.08 1486.77 1192.84 1497.54 1189.73 1500.66 L 1153.81 1536.9 C 1110.68 1580.67 1066.42 1625.16 1024.01 1669.52 C 1010.6 1653.85 993.467 1637.53 978.916 1622.57 L 903.269 1544.3 C 884.365 1524.93 863.399 1504.5 845.727 1484.19 C 848.186 1467.44 846.028 1430.5 846.272 1412.09 C 846.84 1369.18 844.688 1322.44 846.543 1279.83 L 762.472 1280.03 C 749.18 1280.06 727.341 1280.69 714.708 1279.16 C 725.209 1278.42 746.828 1279.18 758.156 1279.18 L 846.837 1279 C 847.137 1257.19 846.133 1235.3 846.573 1213.43 z"/>
<path transform="translate(0,0)" fill="rgb(184,102,58)" d="M 846.573 1213.43 C 960.839 1306.22 1091.11 1313.46 1205.03 1215.69 C 1204.99 1235.73 1205.54 1258.84 1204.95 1278.68 C 1203.04 1271.85 1204.33 1231.9 1203.95 1221.72 C 1180.13 1285.97 1112.94 1340.88 1051.39 1368.44 C 985.939 1397.75 918.195 1408.68 846.917 1404.88 L 847.059 1319.35 C 847.072 1311.74 847.535 1285.51 846.543 1279.83 L 762.472 1280.03 C 749.18 1280.06 727.341 1280.69 714.708 1279.16 C 725.209 1278.42 746.828 1279.18 758.156 1279.18 L 846.837 1279 C 847.137 1257.19 846.133 1235.3 846.573 1213.43 z"/>
</svg>